<!-- folder-alt.svg -->
<svg xmlns="http://www.w3.org/2000/svg" width="24" height="24" viewBox="0 0 24 24" fill="none" stroke="currentColor" stroke-width="2" stroke-linecap="round" stroke-linejoin="round">
  <path d="M20 12.5C20 11.9477 20.4477 11.5 21 11.5H21C21.5523 11.5 22 11.9477 22 12.5V19C22 20.1046 21.1046 21 20 21H4C2.89543 21 2 20.1046 2 19V5C2 3.89543 2.89543 3 4 3H9.17157C9.70201 3 10.2107 3.21071 10.5858 3.58579L12 5H20C21.1046 5 22 5.89543 22 7V8.5C22 9.05228 21.5523 9.5 21 9.5H20C18.8954 9.5 18 10.3954 18 11.5V12.5Z"></path>
</svg>